<?xml version="1.0" encoding="UTF-8"?>
<svg width="85px" height="95px" viewBox="0 0 85 95" version="1.1" xmlns="http://www.w3.org/2000/svg" xmlns:xlink="http://www.w3.org/1999/xlink">
    <!-- Generator: Sketch 57.1 (83088) - https://sketch.com -->
    <title>ic_accent</title>
    <desc>Created with Sketch.</desc>
    <g id="Page-1" stroke="none" stroke-width="1" fill="none" fill-rule="evenodd">
        <g id="ic_accent" fill="#7559C2" fill-rule="nonzero">
            <path d="M78.6195849,11.5640124 C71.4654809,2.95053995 51.2751424,-3.1429381 34.2289073,1.73244291 C15.6449578,7.04478257 6.63962489,18.9444234 5.99766648,40.2326893 L0.252885178,51.9796939 C-0.0636905102,52.6339969 -0.0839535556,53.3932315 0.197269229,54.0635641 C0.478492014,54.7338966 1.03398316,55.2504505 1.72192489,55.4813487 L5.7169963,56.7652889 C5.67714808,58.2974781 5.64430335,59.8298423 5.61846315,61.3623332 L40.0184764,61.3623332 C46.5037492,61.3623332 58.7636619,64.415058 58.7636619,75.7939398 L59.6265735,85 C59.698234,84.9580999 59.7728803,84.9281712 59.8445408,84.886271 C66.4014741,81.0763508 73.7377151,76.6798286 78.0492869,70.2092493 L75.6994206,59.3241905 C86.3619019,48.9030262 88.5505322,23.5085462 78.6195849,11.5640124 L78.6195849,11.5640124 Z" id="Path"></path>
            <path d="M40.063431,69 L6,69 C6.64668013,78.9454525 10.2479172,81.9421431 25.1512244,81.9421431 C27.9248296,81.9421431 30.9031179,81.4258815 33.0982706,80.8740157 L33.1160692,80.9481913 L36.5363545,95 C42.1547589,93.3117654 47.6901035,91.3090266 53,88.8315645 L51.8608937,76.6905169 C51.849028,69.1008787 40.5469578,69 40.063431,69 L40.063431,69 Z" id="Path"></path>
        </g>
    </g>
</svg>