<?xml version="1.0" encoding="UTF-8"?>
<svg width="93px" height="93px" viewBox="0 0 93 93" version="1.1" xmlns="http://www.w3.org/2000/svg" xmlns:xlink="http://www.w3.org/1999/xlink">
    <!-- Generator: Sketch 57.1 (83088) - https://sketch.com -->
    <title>ic_ask</title>
    <desc>Created with Sketch.</desc>
    <g id="Page-1" stroke="none" stroke-width="1" fill="none" fill-rule="evenodd">
        <g id="ic_ask" fill="#7559C2" fill-rule="nonzero">
            <path d="M46.5,0 C20.832,0 0,18.6075243 0,41.8669297 C0.140590371,53.177096 5.0899825,63.8919585 13.609,71.3288432 L12.4,90.4325682 C12.3559285,91.3512885 12.8299304,92.2173032 13.6273923,92.6750484 C14.4248542,93.1327936 15.4114083,93.1051418 16.182,92.603446 L32.457,81.7490569 C37.0233278,83.0590254 41.7496386,83.7270304 46.5,83.7338595 C72.168,83.7338595 93,65.1263351 93,41.8669297 C93,18.6075243 72.168,0 46.5,0 Z M44.454,69.406137 C40.7126648,69.3889357 37.6903713,66.3469127 37.6960709,62.6040292 C37.7017867,58.8611457 40.733344,55.828362 44.474714,55.8226439 C48.216084,55.816942 51.2568769,58.8404581 51.2740712,62.5833068 C51.2822899,64.3953446 50.5664186,66.1355627 49.285619,67.4168804 C48.0048195,68.6981981 46.2653051,69.4143589 44.454,69.406137 Z M54.56,42.2390802 C51.832,44.4099581 50.406,45.6504597 50.406,47.790325 C50.406,51.0103426 47.7967155,53.6206826 44.578,53.6206826 C41.3592845,53.6206826 38.75,51.0103426 38.75,47.790325 C38.75,40.3163027 43.4,36.5327728 46.81,33.7726566 C48.949,32.0359544 50.22,30.9195029 50.22,29.8650765 C50.22,28.8106502 50.22,26.2055968 44.454,26.2055968 C42.2846121,26.181131 40.1467734,26.7265004 38.254,27.7872363 C37.324328,28.3773851 36.2543328,28.7092178 35.154,28.7486251 C32.0722511,28.7486251 29.574,26.2493634 29.574,23.1663678 C29.6051472,21.0566724 30.7974146,19.1363455 32.674,18.1733488 C36.3813691,15.8362796 40.6929415,14.6393343 45.074,14.7309568 C55.273,14.7309568 62.124,20.6853645 62.124,29.5549511 C61.9169687,34.8010686 59.0704579,39.586075 54.56,42.2700928 L54.56,42.2390802 Z" id="Shape"></path>
        </g>
    </g>
</svg>