<?xml version="1.0" encoding="UTF-8"?>
<svg width="86px" height="84px" viewBox="0 0 86 84" version="1.1" xmlns="http://www.w3.org/2000/svg" xmlns:xlink="http://www.w3.org/1999/xlink">
    <!-- Generator: Sketch 57.1 (83088) - https://sketch.com -->
    <title>ic_group</title>
    <desc>Created with Sketch.</desc>
    <g id="Page-1" stroke="none" stroke-width="1" fill="none" fill-rule="evenodd">
        <g id="ic_group" transform="translate(0.460938, 0.164062)" fill="#7559C2" fill-rule="nonzero">
            <path d="M28.9630827,34.44243 C28.9529626,34.4467061 28.9425574,34.450412 28.9318672,34.4532628 C28.7787831,34.4954536 28.6245587,34.531943 28.4721873,34.5765568 C28.6238461,34.531943 28.7786406,34.4954536 28.9318672,34.4532628 C28.9425574,34.4504121 28.9529626,34.4467062 28.9630827,34.44243 C29.6137615,34.1681899 30.2668635,33.8990811 30.9168296,33.622703 C30.2670061,33.8990811 29.6137616,34.1681899 28.9630827,34.44243 Z M29.2768055,47.748634 C29.1881479,48.5561029 29.0903678,49.3630016 28.9988593,50.1704705 C28.9966981,50.1900834 28.9922001,50.2093676 28.9854609,50.2279127 C28.9609447,50.2943347 28.9327225,50.3594739 28.9119122,50.4261809 C28.9357158,50.3500664 28.9696395,50.2753773 28.9954385,50.1999756 C29.0878021,49.3826716 29.1870075,48.5659379 29.2768055,47.748634 L29.2768055,47.748634 Z M54.7115771,50.8202941 C55.2748812,50.5838262 55.8387553,50.3480709 56.3986384,50.1027657 C56.4258628,50.0993449 56.4536575,50.0986322 56.4815946,50.095924 C56.4538,50.0979195 56.4258628,50.0993448 56.3986384,50.1027657 C55.8394679,50.3480709 55.2755938,50.5838262 54.7115771,50.8202941 Z M42.6723797,57.9961485 C42.7272563,58.0104021 42.7742932,58.0446109 42.8077893,58.090365 C43.0509564,58.4229025 43.3753693,58.6704882 43.692798,58.9237755 C43.3753695,58.6704882 43.0503864,58.4230451 42.8077893,58.090365 C42.7748491,58.0443033 42.7270191,58.0110237 42.6723797,57.9961485 C42.5604886,57.9669285 42.4776749,57.890529 42.3957164,57.8135593 C42.4771048,57.890529 42.5599184,57.9670711 42.6723797,57.9961485 Z M42.6481485,26.5456264 C42.6079473,26.5295339 42.5726278,26.5032531 42.5456648,26.4693694 C42.1544024,25.965218 41.6620815,25.5649757 41.1774575,25.1591745 C41.6620814,25.5649757 42.1536895,25.9650755 42.5455222,26.4693694 C42.5721765,26.5035782 42.6079532,26.5290921 42.6481485,26.5456264 C42.9719912,26.678898 43.2006197,26.9457262 43.4678755,27.1559674 C43.2006197,26.9462964 42.9712786,26.6788979 42.6481485,26.5456264 L42.6481485,26.5456264 Z" id="Shape"></path>
            <path d="M28.3159673,34.626302 C28.3675656,34.6086274 28.4198764,34.5923783 28.4721873,34.5766993 C28.6244162,34.5320855 28.7786406,34.495026 28.9315822,34.4534053 C28.942415,34.450412 28.9529627,34.4468487 28.9632253,34.44243 C29.6137616,34.1681899 30.2668636,33.8990811 30.9166871,33.622703 C31.1347679,33.5296267 31.3528486,33.4358377 31.5703593,33.3407659 C35.4138543,31.6571255 38.9699958,29.4979836 42.2359331,26.8631975 C42.3066312,26.8058979 42.3714853,26.7411864 42.4354841,26.6753346 C42.5227679,26.5842547 42.527016,26.4419134 42.4453192,26.3457904 C42.0718737,25.898511 41.621031,25.530767 41.1767448,25.1591745 C41.0092475,25.020243 40.8443518,24.8782046 40.6821435,24.7331331 C39.4591808,23.627763 38.3347109,22.4333077 37.2558526,21.1933833 C36.5542883,20.386627 35.8746745,19.561056 35.1872213,18.7418991 C35.1037059,18.6425243 34.9570092,18.6259254 34.8534009,18.704127 C33.4917504,19.7281088 32.1008798,20.7093295 30.6125143,21.5433102 C29.0637135,22.411357 27.4992335,23.2494714 25.8030499,23.8053634 C25.7966358,23.8075015 25.7902216,23.8099246 25.7839501,23.8127753 C24.2451267,24.5074978 22.6244875,24.9467952 20.9911624,25.3501733 C18.9983605,25.8420666 16.9703521,26.0927882 14.9300856,26.2653997 C14.896732,26.2681079 14.8625234,26.2571326 14.827887,26.2424514 C14.7658836,26.2160821 14.6961833,26.2246343 14.6337523,26.250291 C14.5118836,26.3003213 14.3771866,26.2835019 14.2471935,26.2879206 C11.2998251,26.3939677 8.37355207,26.2056771 5.48405344,25.6037456 C5.08053281,25.5195066 4.94327016,25.6329656 4.79788301,25.9706344 C3.48843649,29.0053014 2.54070196,32.1835371 1.97423625,35.4397575 C1.88800172,35.9357843 1.98506906,36.0961378 2.47083316,36.1986214 C5.60563699,36.8609883 8.77322426,37.217757 11.9745926,37.286317 C14.0494955,37.3310735 16.1142783,37.1570365 18.1796312,36.9901263 C18.1851901,36.9896987 18.1906065,36.9889861 18.1961654,36.9882734 C19.8552895,36.742683 21.5109928,36.4799884 23.149164,36.1102488 C24.8999391,35.7132848 26.6187859,35.2098462 28.3159673,34.626302 L28.3159673,34.626302 Z M82.8546838,48.3444362 C79.7231583,47.686773 76.5605598,47.3287215 73.3624698,47.2627273 C71.2868542,47.2199664 69.2227841,47.3918653 67.1572887,47.5562098 C66.2545219,47.6746445 65.3547172,47.8146553 64.4586463,47.9761221 C63.7882172,48.0969042 63.1202115,48.2307715 62.4550116,48.3776473 C61.7902402,48.5245003 61.1285864,48.6851259 60.4704769,48.8594204 C59.1501514,49.2078629 57.8461484,49.615453 56.5624129,50.0809576 C56.5364352,50.0893729 56.5095407,50.094637 56.4823073,50.0966366 C56.4545127,50.0986321 56.4265755,50.1000574 56.3993511,50.1034784 C55.839468,50.3487836 55.2755939,50.5845388 54.7122899,50.8210068 C54.5241418,50.8998294 54.3365638,50.9786521 54.1489859,51.0581875 C53.7735314,51.2164769 53.3998259,51.3788833 53.0279368,51.545377 C52.6556096,51.7117952 52.2863776,51.8850538 51.9204287,52.0650648 C48.7631041,53.6237007 45.8137402,55.5036138 43.0736197,57.7125009 C43.0158925,57.7591104 42.9611585,57.8092832 42.9071372,57.8604538 C42.8145595,57.9485188 42.8053093,58.0929829 42.8858993,58.192136 C43.1182337,58.4754984 43.4084379,58.6979978 43.693083,58.9252009 C43.8072547,59.0162817 43.9214264,59.1079327 44.0294691,59.2051425 C46.2620173,61.1985145 48.2786228,63.3883018 50.106225,65.7554044 C50.1288882,65.7847669 50.1552575,65.8114212 50.1833372,65.8367927 C50.2712995,65.917578 50.4045931,65.9234701 50.4993404,65.8507613 C53.2601286,63.7075834 56.2615184,61.9838903 59.5194737,60.7060512 C62.4865121,59.5646194 65.5412105,58.7920719 68.7073724,58.4496994 C69.3546304,58.3797139 70.0098703,58.4156332 70.6494313,58.2778004 C70.6619745,58.2750922 70.6746602,58.2733818 70.687346,58.2729543 C73.8076111,58.1460968 76.9067809,58.3185659 79.9674657,58.9673917 C80.3242344,59.0427934 80.4050527,58.8932727 80.5177989,58.6351393 C81.852225,55.5831492 82.7903998,52.4157045 83.3686702,49.1355135 C83.4580405,48.627086 83.3601179,48.4504834 82.8546838,48.3444362 L82.8546838,48.3444362 Z" id="Shape"></path>
            <path d="M28.8922421,50.503008 C28.8969458,50.477209 28.9037876,50.4514098 28.9119122,50.4261809 C28.9327225,50.3594738 28.9609447,50.293907 28.9853184,50.2279127 C28.9921602,50.209383 28.9965789,50.189998 28.9988593,50.1701855 C29.0903678,49.3627166 29.1881477,48.5559604 29.2768055,47.7484914 C29.3067381,47.4761043 29.3352454,47.2035745 29.3624699,46.9304748 C29.7571533,42.9558463 29.6655023,38.9934759 29.0363464,35.0460718 C29.018957,34.9373166 29.0028504,34.8284187 28.9870289,34.7196634 C28.9769995,34.6509429 28.9381806,34.5897449 28.8802874,34.5513852 C28.8223941,34.5130255 28.750905,34.5011341 28.6837113,34.5186871 C28.6128707,34.5372168 28.5421726,34.5560316 28.4717597,34.5766993 C28.4194488,34.5923783 28.367138,34.6086275 28.3155397,34.626302 C26.6183584,35.2099887 24.8993689,35.7134273 23.1478812,36.1088235 C21.5852542,36.4621713 20.0066632,36.7167414 18.4243663,36.9526392 C18.2926798,36.9723218 18.2013119,37.0942515 18.2193989,37.2261667 C18.6820721,40.6688493 18.6799342,44.1116743 18.1826245,47.5536441 C17.6384204,51.0941066 16.6057439,54.4844782 15.0478207,57.7116457 C14.9657197,57.8811216 14.9098454,58.0712651 14.7648858,58.2023987 C14.723469,58.2399159 14.6971652,58.2912566 14.6909094,58.3467881 C14.6695289,58.5410653 14.5449521,58.69643 14.4574348,58.8626275 C13.1060468,61.4220117 11.46588,63.7829852 9.53023523,65.9340026 C9.28364719,66.2085278 9.2815091,66.379714 9.49901977,66.6677802 C11.5210417,69.3467525 13.8242879,71.7531952 16.4040548,73.9002214 C16.7397281,74.1794503 16.9156181,74.1929913 17.2274878,73.8540396 C20.6959695,70.0798173 23.4864053,65.8620217 25.5885326,61.1875392 C25.6613687,61.0249051 25.6994259,60.83861 25.843958,60.7177392 C25.8761712,60.6907998 25.9038233,60.6588717 25.9179343,60.6192465 C26.2970812,59.5564949 26.6726647,58.4924604 27.0566579,57.4317042 C27.8743895,55.1767778 28.4342726,52.8538615 28.8922421,50.503008 L28.8922421,50.503008 Z" id="Path"></path>
            <path d="M50.1057974,65.7532664 C48.2781952,63.3861639 46.2615898,61.1963766 44.0290414,59.2030044 C43.9195497,59.1065667 43.807377,59.0132163 43.6926554,58.9230629 C43.3753693,58.6697756 43.0503862,58.4230451 42.8077893,58.09008 C42.7748375,58.0437525 42.7268256,58.0103003 42.6719521,57.9954357 C42.5602035,57.9665009 42.4775324,57.8896737 42.3957164,57.8128466 C42.3623629,57.7816311 42.3291519,57.7502732 42.2945156,57.7224785 C38.4483124,54.6270148 34.2298041,52.1783813 29.6198906,50.4065108 C29.5175242,50.3675869 29.4139946,50.3317937 29.3094463,50.2991809 L29.2183655,50.270246 C29.0919356,50.2301933 28.95225,50.2963302 28.9133375,50.4231877 L28.9126248,50.4254682 C28.9043675,50.4506115 28.8977963,50.4762775 28.8929548,50.5022953 C28.4349852,52.8531488 27.8752446,55.176065 27.0577982,57.4317042 C26.6903392,58.4468487 26.3305773,59.4649864 25.9679646,60.4821265 C25.9275354,60.5954491 25.9756867,60.721332 26.0814237,60.7787448 C26.163097,60.8230737 26.2454831,60.8661197 26.3308624,60.9014686 C29.2435945,62.0999149 31.954495,63.6504263 34.4601429,65.5575639 C34.6433023,65.697107 34.8669418,65.8000184 34.9845345,66.0129677 C35.0057723,66.0514526 35.0351348,66.0846635 35.0739048,66.1053314 C35.8531515,66.5213953 36.4555105,67.1683682 37.0929334,67.7513421 C39.1074008,69.5939106 40.8834048,71.653277 42.4169544,73.9150452 C42.4865122,74.0172438 42.5249971,74.1402527 42.5676154,74.2602684 C42.5881406,74.3179957 42.6299038,74.3660305 42.6844952,74.3939677 C42.8652314,74.4863312 42.9242415,74.6873077 43.0251573,74.845238 C44.5865014,77.2816133 45.832555,79.8702175 46.7443605,82.6171796 C46.8435659,82.9147957 46.9461921,83.0655993 47.3116556,83.0221257 C50.6401665,82.6213133 53.8803047,81.865015 57.0342084,80.7250085 C57.5104227,80.5531096 57.6341443,80.376507 57.4669491,79.8600974 C55.9124467,75.0531987 53.6560949,70.609055 50.681502,66.5278093 C50.5679004,66.372017 50.4210879,66.2333291 50.3622204,66.0427579 C50.347254,65.9941529 50.3225953,65.9492539 50.2829701,65.9173259 C50.2193988,65.8662979 50.1544023,65.816125 50.1057974,65.7532664 L50.1057974,65.7532664 Z M40.6821435,24.623095 C40.8432096,24.7684821 41.0096921,24.9091656 41.1767448,25.0491363 C41.6613687,25.4549375 42.153547,25.8550373 42.5448096,26.3591887 C42.5714639,26.39354 42.6072405,26.4190541 42.6474359,26.4355883 C42.9711361,26.5688599 43.1999071,26.8356881 43.4670203,27.0459293 C47.3050989,30.0667039 51.5046499,32.4466349 56.0770763,34.1656242 L56.0998821,34.1738914 C56.2288775,34.2190755 56.3716991,34.1453842 56.4108966,34.0145357 C56.7123612,33.0099389 56.8383633,31.9650042 57.1003453,30.9505724 C57.6867402,28.6819624 58.4075469,26.4609598 59.3186399,24.3031007 C59.3755119,24.1686888 59.4152796,24.0354172 59.4291056,23.8968718 C59.4395108,23.7929627 59.3766523,23.6953253 59.2807252,23.6542748 C57.8197267,23.0311056 56.3726968,22.3785737 54.9955098,21.5826503 C53.35349,20.6337852 51.7406903,19.641019 50.31162,18.3811393 C50.3065637,18.376691 50.3012829,18.3725044 50.2957984,18.3685962 C48.7209134,17.2479748 47.3497129,15.8981546 46.0549118,14.4786343 C45.0065563,13.3290779 44.0247654,12.1162355 43.1416096,10.8308419 C42.9775501,10.5922359 42.832163,10.3409441 42.6790789,10.0954964 C42.6758234,10.0902567 42.6724008,10.0851228 42.6688163,10.0801024 C42.5433841,9.90478266 42.4102552,9.73445156 42.294373,9.55229004 C40.7514161,7.1294557 39.5154826,4.55781328 38.6051025,1.83337184 C38.5100307,1.54872656 38.43862,1.36456945 38.055482,1.41075129 C34.6923348,1.81698012 31.4168475,2.57726953 28.2344365,3.74393027 C27.831486,3.89131289 27.7059114,4.0327091 27.8540067,4.48583238 C28.588497,6.73748051 29.466949,8.92655508 30.50718,11.0544814 C31.7830236,13.6626131 33.3423722,16.0951399 35.0325693,18.4482741 C35.0363086,18.453513 35.0402553,18.4586008 35.0443998,18.4635254 C35.780743,19.3382715 36.5051132,20.2222825 37.2558526,21.0847705 C38.3348535,22.3232696 39.4591808,23.5177249 40.6821435,24.623095 L40.6821435,24.623095 Z" id="Shape"></path>
            <path d="M57.1012005,31.0598979 C56.8214016,32.141607 56.6973948,33.2572396 56.3500335,34.3209889 C56.3430446,34.342204 56.3393433,34.3643636 56.3390583,34.3866983 C56.3213837,35.4946341 56.0653883,36.5756304 55.9658979,37.6754415 C55.61255,41.5786593 55.6886645,45.4670532 56.2777676,49.3439017 C56.3165375,49.5973315 56.3585857,49.8500486 56.3986384,50.1027657 C56.4258628,50.0993449 56.4536575,50.0986322 56.4815946,50.095924 C56.5095318,50.0932158 56.5359009,50.089795 56.5617001,50.080245 C57.8454357,49.6147403 59.1494386,49.2071502 60.4697641,48.8587077 C61.1279119,48.6845639 61.7895627,48.5239391 62.4542989,48.3769345 C63.1195104,48.2301137 63.787515,48.0962467 64.4579336,47.9754094 C65.3540252,47.8140661 66.253827,47.6740557 67.1565759,47.555497 C66.6585537,44.0312837 66.6626872,40.507783 67.1551506,36.9837122 C67.6313648,34.05131 68.3795386,31.1943097 69.568435,28.4664475 C69.8815875,27.7472086 70.1055123,26.9769417 70.6088085,26.3507791 C70.6414493,26.3101562 70.6653954,26.2615513 70.6668207,26.2095255 C70.6733774,25.9636502 70.8364391,25.7772125 70.9441966,25.5735279 C72.2690728,23.0834163 73.8677614,20.7815954 75.7503827,18.6821763 C76.0377362,18.3614693 76.064248,18.164484 75.8006981,17.8165526 C73.7950679,15.1709338 71.5141999,12.7935686 68.9670737,10.6663548 C68.6144386,10.371447 68.4241525,10.3564806 68.0933254,10.7172403 C64.6513555,14.467659 61.8820151,18.6569474 59.7845914,23.2933725 C59.7110427,23.4564342 59.6769764,23.6478606 59.5332997,23.7664509 C59.4782807,23.8117775 59.4370876,23.8729256 59.4340944,23.9441939 C59.4272527,24.1051175 59.3846343,24.2582017 59.31921,24.4124262 C58.4084021,26.570998 57.6874529,28.7920007 57.1012005,31.0598979 L57.1012005,31.0598979 Z" id="Path"></path>
            <path d="M68.7324588,36.7238682 C68.7213253,36.7912191 68.7386935,36.860167 68.7804054,36.9142059 C68.8221173,36.9682449 68.8844179,37.0025101 68.9523925,37.0087985 C71.5920247,37.2486873 74.2339376,37.3751171 76.8859705,37.2093473 C79.4922492,37.0462856 82.0727289,36.7127504 84.6205677,36.1337674 C84.8712893,36.0767529 85.0044183,36.0311412 84.9513948,35.7165633 C84.3792536,32.2991096 83.4104334,29.0011016 82.0169972,25.8275278 C81.9069591,25.5775189 81.7880837,25.5244954 81.5162666,25.58151 C78.4836614,26.2219262 75.4141392,26.395108 72.324377,26.283787 C72.247548,26.280443 72.173679,26.3137026 72.1252535,26.3734424 C71.6339304,26.9957564 71.4115736,27.7566159 71.1019845,28.4677302 C69.9495773,31.1143467 69.2105259,33.8828319 68.7324588,36.7238682 L68.7324588,36.7238682 Z M13.2300534,57.7130711 C14.7459285,54.5721382 15.7646364,51.2781211 16.3198158,47.8409975 C16.3429066,47.6983186 16.2367171,47.5647619 16.0923277,47.5586329 C16.0730959,47.5578276 16.0538925,47.5564491 16.0347429,47.5544993 C13.4189142,47.2650079 10.7983819,47.1821941 8.16972492,47.3405521 C5.58112066,47.4962019 3.02173652,47.8419953 0.488151328,48.3977448 C0.124683398,48.4772801 0.0763635938,48.6029973 0.134233359,48.9500735 C0.647934727,52.0210211 1.49175035,54.9963266 2.68820121,57.8702888 C3.15629086,58.994046 3.16313262,59.0205578 4.37041629,58.7990562 C7.15629094,58.288063 9.96539906,58.186292 12.7866226,58.2572752 C12.8509065,58.258843 12.9144778,58.2361798 12.9606596,58.1914234 C13.0959267,58.0602899 13.1512309,57.876988 13.2300534,57.7130711 L13.2300534,57.7130711 Z M36.2027934,68.2936932 C35.6039979,67.7459257 35.0364178,67.1415713 34.3231655,66.7255073 C34.2134554,66.6604938 34.0722435,66.6902096 33.9980398,66.7939249 C33.4458536,67.5718888 32.8774184,68.3394475 32.3551649,69.1367963 C30.0329612,72.6833878 28.2371447,76.4814137 26.9660047,80.5265978 C26.8864695,80.7793148 26.732245,81.0069456 27.1508745,81.1625954 C30.4128207,82.3774335 33.77383,83.1682256 37.2294833,83.571176 C37.470655,83.5989707 37.5936639,83.535827 37.6704911,83.2980763 C38.6167904,80.3518481 40.0026722,77.6161464 41.6523889,75.0092974 C41.6923437,74.9463822 41.7011227,74.8685802 41.6761925,74.7983435 C41.6344294,74.6800383 41.596087,74.55931 41.5276696,74.4588217 C39.9932648,72.1949155 38.2172609,70.1362617 36.2027934,68.2936932 L36.2027934,68.2936932 Z M47.0734772,13.1353709 C48.3711289,14.5574569 49.7443249,15.909415 51.3226309,17.0311768 C51.3498553,17.0073732 51.3817835,16.9869906 51.403449,16.9584832 C54.5750272,12.7208749 56.9407045,8.07090879 58.5482304,3.03025031 C58.6609767,2.67690246 58.5550721,2.56415613 58.2363607,2.4459934 C55.147026,1.29985793 51.9680359,0.540851367 48.6986776,0.115522734 C48.0363108,0.0292882031 47.8406082,0.207886289 47.6407723,0.794993906 C46.6990341,3.56818277 45.4373014,6.1905682 43.7815983,8.61311742 C43.7273021,8.69232899 43.724843,8.79611329 43.7753266,8.87780754 C43.9010437,9.0824898 44.0240528,9.28902516 44.1594623,9.48672328 C45.0434733,10.7731146 46.0252643,11.9858146 47.0734772,13.1353709 Z M20.9911624,23.4762468 C22.548373,23.0916834 24.093753,22.6750494 25.5678648,22.0346333 C25.6277043,22.0081739 25.6745661,21.9590051 25.6981215,21.8979641 C25.721677,21.8369231 25.7199925,21.7690206 25.6934394,21.7092226 C23.5740652,16.9586257 20.7642444,12.6598693 17.2346147,8.82734965 C16.9342904,8.50122633 16.7616788,8.47343168 16.4131772,8.76420609 C13.8354057,10.9105198 11.5342976,13.3142542 9.50885473,15.9885227 C9.2683957,16.3058088 9.2976157,16.4791331 9.55375371,16.7650613 C11.6082739,19.0560493 13.3319671,21.5773764 14.7241204,24.3229132 C14.7926804,24.3467168 14.8640911,24.3970322 14.929943,24.3909032 C16.9703521,24.218149 18.9990731,23.9681401 20.9911624,23.4762468 L20.9911624,23.4762468 Z M60.5990447,61.6038881 C60.534297,61.6285397 60.4830122,61.6794502 60.4578869,61.7440155 C60.4327616,61.8085807 60.4361446,61.880765 60.4671984,61.9426973 C60.5086765,62.0255111 60.5494419,62.1086098 60.5873566,62.1931338 C62.6853504,66.8499417 65.46082,71.0576173 68.9170434,74.8208643 C69.2417414,75.1742121 69.4307448,75.1809113 69.7907918,74.8800169 C72.3535969,72.740545 74.6438723,70.3469306 76.6597652,67.6863455 C76.8989414,67.3704847 76.8758504,67.1930269 76.6175745,66.9049608 C74.720557,64.7932835 73.1083274,62.4784917 71.7733311,59.9721311 C71.6876667,59.8110649 71.5697891,59.6596911 71.518476,59.4825184 C71.4842482,59.3667479 71.3694441,59.2943395 71.2502224,59.3133277 C70.6826423,59.4025555 70.1047996,59.3817451 69.5332284,59.4434634 C66.4578623,59.7768561 63.4865477,60.5149098 60.5990447,61.6038881 L60.5990447,61.6038881 Z" id="Shape"></path>
        </g>
    </g>
</svg>