<?xml version="1.0" encoding="UTF-8"?>
<svg width="107px" height="102px" viewBox="0 0 107 102" version="1.1" xmlns="http://www.w3.org/2000/svg" xmlns:xlink="http://www.w3.org/1999/xlink">
    <!-- Generator: Sketch 57.1 (83088) - https://sketch.com -->
    <title>ic_message</title>
    <desc>Created with Sketch.</desc>
    <g id="Page-1" stroke="none" stroke-width="1" fill="none" fill-rule="evenodd">
        <g id="ic_message" fill="#7559C2" fill-rule="nonzero">
            <path d="M88,40.7943939 C88,17.9859049 68.2583458,0 43.997863,0 C19.7414028,0 0,17.9856537 0,40.7943939 C0,49.2709457 2.7360861,57.3505944 7.74667105,64.1612081 L4.78783639,79.9901298 C4.54220967,81.3244367 5.80428375,82.4079491 6.9680568,81.850126 L20.300034,75.5172518 C27.3138473,79.7305486 35.4841427,81.9954812 43.9976116,81.9954814 C68.2580943,81.9954814 88,63.603134 88,40.7943939 Z" id="Path"></path>
            <path d="M99.3450201,84.3172385 C104.296451,77.5659639 107,69.5568413 107,61.1544383 C107,50.1273312 102.358174,40.2388127 94.8232913,33 C95.2993509,35.6906021 95.5384659,38.4178781 95.5378793,41.1503836 C95.5378793,54.2826542 90.12329,66.592611 80.291838,75.8128276 C70.6139401,84.8892831 57.7853134,89.8874215 44.17069,89.8874215 C39.7306705,89.8886133 35.3073169,89.3436571 31,88.2647954 C38.9715757,96.6937005 50.5967383,101.995613 63.522491,101.995613 C71.9352536,101.995613 80.0086994,99.7506881 86.9393537,95.5736135 L100.114039,101.851851 C101.264071,102.403894 102.511229,101.329811 102.268539,100.007458 L99.3450201,84.3172385 L99.3450201,84.3172385 Z" id="Path"></path>
        </g>
    </g>
</svg>