<?xml version="1.0" encoding="UTF-8"?>
<svg width="86px" height="90px" viewBox="0 0 86 90" version="1.1" xmlns="http://www.w3.org/2000/svg" xmlns:xlink="http://www.w3.org/1999/xlink">
    <!-- Generator: Sketch 57.1 (83088) - https://sketch.com -->
    <title>ic_news</title>
    <desc>Created with Sketch.</desc>
    <g id="Page-1" stroke="none" stroke-width="1" fill="none" fill-rule="evenodd">
        <g id="ic_news" fill="#7559C2" fill-rule="nonzero">
            <path d="M70.3636364,20.4531509 L76.2350909,20.4531509 C81.6293657,20.4576668 86,25.0349382 86,30.6797264 L86,77.7219735 C86,84.4981024 80.7461818,89.9938641 74.2785908,89.9938641 L74.1222273,89.9938641 L11.7272727,90 C5.25124209,90 0.00107937217,84.506934 0,77.7301548 L0,10.2347567 C0.00214453006,4.58957222 4.37026419,0.0112764268 9.76490906,0 L60.6026363,0 C63.1950439,0.00379449422 65.6798325,1.08509044 67.5103756,3.00601451 C69.3409188,4.92693857 70.3672675,7.53013825 70.3636364,10.242938 L70.3636364,20.4531509 Z M70.3636364,28.6344112 L70.3636364,77.7362908 C70.3636364,79.9350045 72.0230455,81.7246552 74.1163636,81.8126037 L74.2785908,81.8126037 C76.4285909,81.8126037 78.1818182,79.9779561 78.1818182,77.7219735 L78.1818182,30.6797264 C78.1818182,29.5533173 77.3115021,28.6389169 76.2350909,28.6344112 L70.3636364,28.6344112 Z M62.5454545,77.7362908 L62.5454545,10.242938 C62.5454545,9.09960685 61.6717727,8.18126034 60.6006818,8.18126034 L9.76490906,8.18126034 C8.70163636,8.18126034 7.81818179,9.1057428 7.81818179,10.2327113 L7.81818179,77.7281094 C7.81818179,78.8130121 8.23104659,79.8532645 8.96450992,80.6200229 C9.69797325,81.3867813 10.6924718,81.8166949 11.7292272,81.8166949 L63.21,81.8126037 C62.768964,80.5024528 62.54424,79.1233071 62.5454545,77.7342454 L62.5454545,77.7362908 Z M19.5454545,16.3625207 L50.8181818,16.3625207 C52.9771131,16.3625207 54.7272727,18.1939582 54.7272727,20.4531509 L54.7272727,36.8156717 C54.7272727,39.0748643 52.977113,40.9063018 50.8181818,40.9063018 L19.5454545,40.9063018 C17.3865232,40.9063018 15.6363636,39.0748643 15.6363636,36.8156717 L15.6363636,20.4531509 C15.6363636,18.1939582 17.3865232,16.3625207 19.5454545,16.3625207 L19.5454545,16.3625207 Z M23.4545455,24.5437811 L23.4545455,32.7250415 L46.9090909,32.7250415 L46.9090909,24.5437811 L23.4545455,24.5437811 Z M19.5454545,57.2688226 C18.1487283,57.2690463 16.8580086,56.4894256 16.1595837,55.2236883 C15.4611589,53.957951 15.4611589,52.3984338 16.1595837,51.1326965 C16.8580086,49.8669593 18.1487283,49.0873385 19.5454545,49.0875622 L50.8181818,49.0875622 C52.214908,49.0873385 53.5056277,49.8669593 54.2040525,51.1326965 C54.9024774,52.3984338 54.9024774,53.957951 54.2040525,55.2236883 C53.5056277,56.4894256 52.214908,57.2690463 50.8181818,57.2688226 L19.5454545,57.2688226 Z M19.5454545,71.5860283 C18.1487283,71.586252 16.8580086,70.8066312 16.1595837,69.5408939 C15.4611589,68.2751567 15.4611589,66.7156394 16.1595837,65.4499022 C16.8580086,64.1841649 18.1487283,63.4045441 19.5454545,63.4047678 L50.8181818,63.4047678 C52.214908,63.4045441 53.5056277,64.1841649 54.2040525,65.4499022 C54.9024774,66.7156394 54.9024774,68.2751567 54.2040525,69.5408939 C53.5056277,70.8066312 52.214908,71.586252 50.8181818,71.5860283 L19.5454545,71.5860283 L19.5454545,71.5860283 Z" id="Shape"></path>
        </g>
    </g>
</svg>