<?xml version="1.0" encoding="UTF-8"?>
<svg width="90px" height="82px" viewBox="0 0 90 82" version="1.1" xmlns="http://www.w3.org/2000/svg" xmlns:xlink="http://www.w3.org/1999/xlink">
    <!-- Generator: Sketch 57.1 (83088) - https://sketch.com -->
    <title>ic_thumb</title>
    <desc>Created with Sketch.</desc>
    <g id="Page-1" stroke="none" stroke-width="1" fill="none" fill-rule="evenodd">
        <g id="ic_thumb" fill="#7559C2" fill-rule="nonzero">
            <path d="M0,82 L16.3636363,82 L16.3636363,32.8 L0,32.8 L0,82 Z M89.9999999,36.9 C89.9999999,32.39 86.3181818,28.7 81.8181818,28.6999999 L56.0454545,28.6999999 L60.1363636,9.84 L60.1363636,8.61 C60.1363636,6.96999997 59.3181819,5.33000003 58.5,4.09999994 L54,0 L27,27.06 C25.3636363,28.29 24.5454545,30.34 24.5454545,32.8 L24.5454545,73.8 C24.5454545,78.31 28.2272727,82 32.7272727,82 L69.5454545,82 C72.8181818,82 75.6818181,79.95 76.9090909,77.08 L89.1818181,47.97 C89.5909091,47.15 89.5909091,45.92 89.5909091,45.1 L89.5909091,36.9 L89.9999999,36.9 C89.9999999,37.31 89.9999999,36.9 89.9999999,36.9 L89.9999999,36.9 Z" id="Shape"></path>
        </g>
    </g>
</svg>